<svg width="24" height="35" viewBox="0 0 24 35" fill="none" xmlns="http://www.w3.org/2000/svg">
<path d="M12.75 32.0224C12.75 26.6681 18.7725 22.0426 20.49 20.3372C22.6575 18.1851 24 15.2064 24 11.9149C24 5.33191 18.6375 0.00744681 12 0C5.3625 0.00744681 0 5.33191 0 11.9149C0 15.2064 1.3425 18.1851 3.51 20.3372C5.2275 22.0426 11.25 26.6681 11.25 32.0224C11.25 32.0224 11.0742 35 12 35C12.9258 35 12.75 32.0224 12.75 32.0224Z" fill="#3F3F3F"/>
<path fill-rule="evenodd" clip-rule="evenodd" d="M7.04102 7.04232C7.04102 6.65112 7.35815 6.33398 7.74935 6.33398C8.14055 6.33398 8.45768 6.65112 8.45768 7.04232V7.75065H15.541V7.04232C15.541 6.65112 15.8581 6.33398 16.2493 6.33398C16.6406 6.33398 16.9577 6.65112 16.9577 7.04232V7.75065C17.3489 7.75065 17.666 8.06778 17.666 8.45898V12.709C17.666 13.1002 17.3489 13.4173 16.9577 13.4173V14.834H18.3743C18.7656 14.834 19.0827 15.1511 19.0827 15.5423C19.0827 15.9335 18.7656 16.2507 18.3743 16.2507H17.666V18.3757C17.666 18.7669 17.3489 19.084 16.9577 19.084C16.5665 19.084 16.2493 18.7669 16.2493 18.3757V16.2507H7.74935V18.3757C7.74935 18.7669 7.43222 19.084 7.04102 19.084C6.64981 19.084 6.33268 18.7669 6.33268 18.3757V16.2507H5.62435C5.23315 16.2507 4.91602 15.9335 4.91602 15.5423C4.91602 15.1511 5.23315 14.834 5.62435 14.834H7.04102V13.4173C6.64981 13.4173 6.33268 13.1002 6.33268 12.709V8.45898C6.33268 8.06778 6.64981 7.75065 7.04102 7.75065V7.04232ZM8.45768 13.4173H15.541V14.834H8.45768V13.4173Z" fill="white"/>
</svg>
