<svg width="24" height="35" viewBox="0 0 24 35" fill="none" xmlns="http://www.w3.org/2000/svg">
<path d="M12.75 32.0224C12.75 26.6681 18.7725 22.0426 20.49 20.3372C22.6575 18.1851 24 15.2064 24 11.9149C24 5.33191 18.6375 0.00744681 12 0C5.3625 0.00744681 0 5.33191 0 11.9149C0 15.2064 1.3425 18.1851 3.51 20.3372C5.2275 22.0426 11.25 26.6681 11.25 32.0224C11.25 32.0224 11.0742 35 12 35C12.9258 35 12.75 32.0224 12.75 32.0224Z" fill="#3F3F3F"/>
<path fill-rule="evenodd" clip-rule="evenodd" d="M4.91602 11.2923C4.91602 10.9011 5.23315 10.584 5.62435 10.584H18.3743C18.7656 10.584 19.0827 10.9011 19.0827 11.2923C19.0827 11.6835 18.7656 12.0007 18.3743 12.0007H16.9577L16.9577 14.834C17.3489 14.834 17.666 15.1511 17.666 15.5423C17.666 15.9335 17.3489 16.2507 16.9577 16.2507H15.541C15.1498 16.2507 14.8327 15.9335 14.8327 15.5423C14.8327 15.1511 15.1498 14.834 15.541 14.834L15.541 12.0007H8.45768L8.45768 14.834C8.84889 14.834 9.16602 15.1511 9.16602 15.5423C9.16602 15.9335 8.84888 16.2507 8.45768 16.2507H7.04101C6.64981 16.2507 6.33268 15.9335 6.33268 15.5423C6.33268 15.1511 6.64981 14.834 7.04102 14.834L7.04102 12.0007H5.62435C5.23315 12.0007 4.91602 11.6835 4.91602 11.2923Z" fill="white"/>
</svg>
