<svg width="24" height="35" viewBox="0 0 24 35" fill="none" xmlns="http://www.w3.org/2000/svg">
<path d="M12.75 32.0224C12.75 26.6681 18.7725 22.0426 20.49 20.3372C22.6575 18.1851 24 15.2064 24 11.9149C24 5.33191 18.6375 0.00744681 12 0C5.3625 0.00744681 0 5.33191 0 11.9149C0 15.2064 1.3425 18.1851 3.51 20.3372C5.2275 22.0426 11.25 26.6681 11.25 32.0224C11.25 32.0224 11.0742 35 12 35C12.9258 35 12.75 32.0224 12.75 32.0224Z" fill="#3F3F3F"/>
<path fill-rule="evenodd" clip-rule="evenodd" d="M8.45898 6.33398H6.33398V9.16732V12.0007V14.834V16.959C6.33398 17.3502 6.65112 17.6673 7.04232 17.6673H9.16732H12.0007H14.834H16.959C17.3502 17.6673 17.6673 17.3502 17.6673 16.959V15.5423C17.6673 15.1511 17.3502 14.834 16.959 14.834H14.834V12.709C14.834 12.3178 14.5169 12.0007 14.1257 12.0007H12.0007V9.87565C12.0007 9.48445 11.6835 9.16732 11.2923 9.16732H9.16732V7.04232C9.16732 6.65112 8.85019 6.33398 8.45898 6.33398Z" fill="white"/>
</svg>
