<svg width="20" height="20" viewBox="0 0 20 20" fill="none" xmlns="http://www.w3.org/2000/svg">
<path fill-rule="evenodd" clip-rule="evenodd" d="M1.66602 9.16732C1.66602 8.70708 2.03911 8.33398 2.49935 8.33398H17.4993C17.9596 8.33398 18.3327 8.70708 18.3327 9.16732C18.3327 9.62756 17.9596 10.0007 17.4993 10.0007H15.8327L15.8327 13.334C16.2929 13.334 16.666 13.7071 16.666 14.1673C16.666 14.6276 16.2929 15.0007 15.8327 15.0007H14.166C13.7058 15.0007 13.3327 14.6276 13.3327 14.1673C13.3327 13.7071 13.7058 13.334 14.166 13.334L14.166 10.0007H5.83268L5.83268 13.334C6.29292 13.334 6.66602 13.7071 6.66602 14.1673C6.66602 14.6276 6.29292 15.0007 5.83268 15.0007H4.16601C3.70578 15.0007 3.33268 14.6276 3.33268 14.1673C3.33268 13.7071 3.70578 13.334 4.16601 13.334L4.16602 10.0007H2.49935C2.03911 10.0007 1.66602 9.62756 1.66602 9.16732Z" fill="#3F3F3F"/>
</svg>
