<svg width="20" height="20" viewBox="0 0 20 20" fill="none" xmlns="http://www.w3.org/2000/svg">
<path fill-rule="evenodd" clip-rule="evenodd" d="M4.16602 4.16732C4.16602 3.70708 4.53911 3.33398 4.99935 3.33398C5.45959 3.33398 5.83268 3.70708 5.83268 4.16732V5.00065H14.166V4.16732C14.166 3.70708 14.5391 3.33398 14.9993 3.33398C15.4596 3.33398 15.8327 3.70708 15.8327 4.16732V5.00065C16.2929 5.00065 16.666 5.37375 16.666 5.83398V10.834C16.666 11.2942 16.2929 11.6673 15.8327 11.6673V13.334H17.4993C17.9596 13.334 18.3327 13.7071 18.3327 14.1673C18.3327 14.6276 17.9596 15.0007 17.4993 15.0007H16.666V17.5007C16.666 17.9609 16.2929 18.334 15.8327 18.334C15.3724 18.334 14.9993 17.9609 14.9993 17.5007V15.0007H4.99935V17.5007C4.99935 17.9609 4.62625 18.334 4.16602 18.334C3.70578 18.334 3.33268 17.9609 3.33268 17.5007V15.0007H2.49935C2.03911 15.0007 1.66602 14.6276 1.66602 14.1673C1.66602 13.7071 2.03911 13.334 2.49935 13.334H4.16602V11.6673C3.70578 11.6673 3.33268 11.2942 3.33268 10.834V5.83398C3.33268 5.37375 3.70578 5.00065 4.16602 5.00065V4.16732ZM5.83268 11.6673H14.166V13.334H5.83268V11.6673Z" fill="#3F3F3F"/>
</svg>
