<svg width="20" height="20" viewBox="0 0 20 20" fill="none" xmlns="http://www.w3.org/2000/svg">
<path d="M13.2689 10.6981C13.4859 10.8804 13.7355 10.9716 14.0176 10.9716C14.2997 10.9716 14.5384 10.8804 14.7337 10.6981C14.9507 10.5158 15.0592 10.2829 15.0592 9.99935C15.0592 9.71578 14.9507 9.48286 14.7337 9.30056C14.5384 9.11827 14.2997 9.02713 14.0176 9.02713C13.7355 9.02713 13.4859 9.11827 13.2689 9.30056C13.0736 9.48286 12.9759 9.71578 12.9759 9.99935C12.9759 10.2829 13.0736 10.5158 13.2689 10.6981ZM9.81836 10.6981C10.0354 10.8804 10.2849 10.9716 10.5671 10.9716C10.8492 10.9716 11.0879 10.8804 11.2832 10.6981C11.5002 10.5158 11.6087 10.2829 11.6087 9.99935C11.6087 9.71578 11.5002 9.48286 11.2832 9.30056C11.0879 9.11827 10.8492 9.02713 10.5671 9.02713C10.2849 9.02713 10.0354 9.11827 9.81836 9.30056C9.62305 9.48286 9.52539 9.71578 9.52539 9.99935C9.52539 10.2829 9.62305 10.5158 9.81836 10.6981ZM6.33529 10.6981C6.5306 10.8804 6.78016 10.9716 7.08398 10.9716C7.3878 10.9716 7.63737 10.8804 7.83268 10.6981C8.02799 10.5158 8.12565 10.2829 8.12565 9.99935C8.12565 9.71578 8.02799 9.48286 7.83268 9.30056C7.63737 9.11827 7.3878 9.02713 7.08398 9.02713C6.78016 9.02713 6.5306 9.11827 6.33529 9.30056C6.13997 9.48286 6.04232 9.71578 6.04232 9.99935C6.04232 10.2829 6.13997 10.5158 6.33529 10.6981ZM16.1009 4.16602C16.4698 4.16602 16.7954 4.29767 17.0775 4.56098C17.3596 4.82429 17.5007 5.12811 17.5007 5.47244V14.5263C17.5007 14.8706 17.3596 15.1744 17.0775 15.4377C16.7954 15.701 16.4698 15.8327 16.1009 15.8327H5.74935C5.27192 15.8327 4.88129 15.6403 4.57747 15.2554L0.833984 9.99935L4.57747 4.74327C4.88129 4.35843 5.25022 4.16602 5.68424 4.16602H16.1009Z" fill="#3F3F3F"/>
</svg>
