<svg width="24" height="35" viewBox="0 0 24 35" fill="none" xmlns="http://www.w3.org/2000/svg">
<path d="M12.75 32.0224C12.75 26.6681 18.7725 22.0426 20.49 20.3372C22.6575 18.1851 24 15.2064 24 11.9149C24 5.33191 18.6375 0.00744681 12 0C5.3625 0.00744681 0 5.33191 0 11.9149C0 15.2064 1.3425 18.1851 3.51 20.3372C5.2275 22.0426 11.25 26.6681 11.25 32.0224C11.25 32.0224 11.0742 35 12 35C12.9258 35 12.75 32.0224 12.75 32.0224Z" fill="#3F3F3F"/>
<path d="M14.7786 12.5933C14.9631 12.7483 15.1752 12.8257 15.415 12.8257C15.6548 12.8257 15.8577 12.7483 16.0238 12.5933C16.2082 12.4384 16.3005 12.2404 16.3005 11.9993C16.3005 11.7583 16.2082 11.5603 16.0238 11.4054C15.8577 11.2504 15.6548 11.173 15.415 11.173C15.1752 11.173 14.9631 11.2504 14.7786 11.4054C14.6126 11.5603 14.5296 11.7583 14.5296 11.9993C14.5296 12.2404 14.6126 12.4384 14.7786 12.5933ZM11.8457 12.5933C12.0302 12.7483 12.2423 12.8257 12.4821 12.8257C12.7219 12.8257 12.9248 12.7483 13.0908 12.5933C13.2753 12.4384 13.3675 12.2404 13.3675 11.9993C13.3675 11.7583 13.2753 11.5603 13.0908 11.4054C12.9248 11.2504 12.7219 11.173 12.4821 11.173C12.2423 11.173 12.0302 11.2504 11.8457 11.4054C11.6797 11.5603 11.5967 11.7583 11.5967 11.9993C11.5967 12.2404 11.6797 12.4384 11.8457 12.5933ZM8.88509 12.5933C9.05111 12.7483 9.26324 12.8257 9.52148 12.8257C9.77973 12.8257 9.99186 12.7483 10.1579 12.5933C10.3239 12.4384 10.4069 12.2404 10.4069 11.9993C10.4069 11.7583 10.3239 11.5603 10.1579 11.4054C9.99186 11.2504 9.77973 11.173 9.52148 11.173C9.26324 11.173 9.05111 11.2504 8.88509 11.4054C8.71908 11.5603 8.63607 11.7583 8.63607 11.9993C8.63607 12.2404 8.71908 12.4384 8.88509 12.5933ZM17.1859 7.04102C17.4995 7.04102 17.7762 7.15292 18.016 7.37674C18.2558 7.60055 18.3757 7.8588 18.3757 8.15148V15.8472C18.3757 16.1399 18.2558 16.3981 18.016 16.622C17.7762 16.8458 17.4995 16.9577 17.1859 16.9577H8.38704C7.98123 16.9577 7.6492 16.7941 7.39095 16.467L4.20898 11.9993L7.39095 7.53168C7.6492 7.20457 7.96278 7.04102 8.33171 7.04102H17.1859Z" fill="white"/>
</svg>
