<svg width="20" height="20" viewBox="0 0 20 20" fill="none" xmlns="http://www.w3.org/2000/svg">
<path d="M4.64844 8.82812C4.41406 9.0625 4.11458 9.17969 3.75 9.17969C3.38542 9.17969 3.08594 9.0625 2.85156 8.82812C2.61719 8.56771 2.5 8.26823 2.5 7.92969C2.5 7.59115 2.61719 7.30469 2.85156 7.07031C3.08594 6.8099 3.38542 6.67969 3.75 6.67969C4.11458 6.67969 4.41406 6.8099 4.64844 7.07031C4.88281 7.30469 5 7.59115 5 7.92969C5 8.26823 4.88281 8.56771 4.64844 8.82812ZM18.4766 7.65625C18.4766 9.14062 17.9818 10.4297 16.9922 11.5234C16.0026 12.6172 14.7786 13.2552 13.3203 13.4375V16.6797H15.8203V18.3203H2.5V14.1797H1.67969V10.8203C1.67969 10.5859 1.75781 10.3906 1.91406 10.2344C2.07031 10.0781 2.26562 10 2.5 10H5C5.23437 10 5.42969 10.0781 5.58594 10.2344C5.74219 10.3906 5.82031 10.5859 5.82031 10.8203V14.1797H5V16.6797H11.6797V13.3984C10.2734 13.1641 9.10156 12.513 8.16406 11.4453C7.2526 10.3516 6.79687 9.08854 6.79687 7.65625C6.79687 6.04167 7.36979 4.66146 8.51562 3.51562C9.66146 2.36979 11.0417 1.79688 12.6562 1.79688C14.2708 1.79688 15.638 2.36979 16.7578 3.51562C17.9036 4.66146 18.4766 6.04167 18.4766 7.65625Z" fill="#3F3F3F"/>
</svg>
