<svg width="24" height="35" viewBox="0 0 24 35" fill="none" xmlns="http://www.w3.org/2000/svg">
<path d="M12.75 32.0224C12.75 26.6681 18.7725 22.0426 20.49 20.3372C22.6575 18.1851 24 15.2064 24 11.9149C24 5.33191 18.6375 0.00744681 12 0C5.3625 0.00744681 0 5.33191 0 11.9149C0 15.2064 1.3425 18.1851 3.51 20.3372C5.2275 22.0426 11.25 26.6681 11.25 32.0224C11.25 32.0224 11.0742 35 12 35C12.9258 35 12.75 32.0224 12.75 32.0224Z" fill="#3F3F3F"/>
<path fill-rule="evenodd" clip-rule="evenodd" d="M7.33398 7.04102C6.7817 7.04102 6.33398 7.48873 6.33398 8.04102V15.541V17.3743C6.33398 17.9266 6.7817 18.3743 7.33398 18.3743H9.16732H14.834H16.6673C17.2196 18.3743 17.6673 17.9266 17.6673 17.3744V15.541V8.04102C17.6673 7.48873 17.2196 7.04102 16.6673 7.04102H14.834V7.74935C14.834 7.74935 14.834 14.8327 12.0007 14.8327C9.16732 14.8327 9.16732 7.74935 9.16732 7.74935V7.04102H7.33398Z" fill="white"/>
</svg>
