<svg width="24" height="35" viewBox="0 0 24 35" fill="none" xmlns="http://www.w3.org/2000/svg">
<path d="M12.75 32.0224C12.75 26.6681 18.7725 22.0426 20.49 20.3372C22.6575 18.1851 24 15.2064 24 11.9149C24 5.33191 18.6375 0.00744681 12 0C5.3625 0.00744681 0 5.33191 0 11.9149C0 15.2064 1.3425 18.1851 3.51 20.3372C5.2275 22.0426 11.25 26.6681 11.25 32.0224C11.25 32.0224 11.0742 35 12 35C12.9258 35 12.75 32.0224 12.75 32.0224Z" fill="#3F3F3F"/>
<path d="M7.45117 11.0039C7.25195 11.2031 6.9974 11.3027 6.6875 11.3027C6.3776 11.3027 6.12305 11.2031 5.92383 11.0039C5.72461 10.7826 5.625 10.528 5.625 10.2402C5.625 9.95247 5.72461 9.70898 5.92383 9.50977C6.12305 9.28841 6.3776 9.17773 6.6875 9.17773C6.9974 9.17773 7.25195 9.28841 7.45117 9.50977C7.65039 9.70898 7.75 9.95247 7.75 10.2402C7.75 10.528 7.65039 10.7826 7.45117 11.0039ZM19.2051 10.0078C19.2051 11.2695 18.7845 12.3652 17.9434 13.2949C17.1022 14.2246 16.0618 14.7669 14.8223 14.9219V17.6777H16.9473V19.0723H5.625V15.5527H4.92773V12.6973C4.92773 12.498 4.99414 12.332 5.12695 12.1992C5.25977 12.0664 5.42578 12 5.625 12H7.75C7.94922 12 8.11523 12.0664 8.24805 12.1992C8.38086 12.332 8.44727 12.498 8.44727 12.6973V15.5527H7.75V17.6777H13.4277V14.8887C12.2324 14.6895 11.2363 14.1361 10.4395 13.2285C9.66471 12.2988 9.27734 11.2253 9.27734 10.0078C9.27734 8.63542 9.76432 7.46224 10.7383 6.48828C11.7122 5.51432 12.8854 5.02734 14.2578 5.02734C15.6302 5.02734 16.7923 5.51432 17.7441 6.48828C18.7181 7.46224 19.2051 8.63542 19.2051 10.0078Z" fill="white"/>
</svg>
