<svg width="24" height="35" viewBox="0 0 24 35" fill="none" xmlns="http://www.w3.org/2000/svg">
<path d="M12.75 32.0224C12.75 26.6681 18.7725 22.0426 20.49 20.3372C22.6575 18.1851 24 15.2064 24 11.9149C24 5.33191 18.6375 0.00744681 12 0C5.3625 0.00744681 0 5.33191 0 11.9149C0 15.2064 1.3425 18.1851 3.51 20.3372C5.2275 22.0426 11.25 26.6681 11.25 32.0224C11.25 32.0224 11.0742 35 12 35C12.9258 35 12.75 32.0224 12.75 32.0224Z" fill="#3F3F3F"/>
<path d="M6.625 17.6673H16.6423C17.5813 17.6673 18.0026 16.4899 17.2766 15.8942L7.25932 7.67496C6.60663 7.13942 5.625 7.60376 5.625 8.44803V16.6673C5.625 17.2196 6.07272 17.6673 6.625 17.6673Z" fill="white"/>
</svg>
