<svg width="90" height="32" viewBox="0 0 90 32" fill="none" xmlns="http://www.w3.org/2000/svg">
<path fill-rule="evenodd" clip-rule="evenodd" d="M16 31.9999C24.8366 31.9999 32 24.8365 32 16C32 7.16343 24.8366 0 16 0C7.16344 0 0 7.16343 0 16C0 16.2061 0.00389611 16.4112 0.0116187 16.6154C0.00394741 16.7237 4.6503e-05 16.833 4.6503e-05 16.9432V25.9048C4.6503e-05 29.2711 2.72897 32 6.09528 32H15.3052C15.3943 32 15.4829 31.9981 15.571 31.9943C15.7136 31.9981 15.8566 31.9999 16 31.9999Z" fill="white"/>
<path d="M15.3204 8.54977C15.6789 8.34278 16.1206 8.34278 16.4791 8.54977L20.9233 11.1156C21.2818 11.3226 21.5027 11.7051 21.5027 12.1191V17.2508C21.5027 17.6648 21.2818 18.0473 20.9233 18.2543L16.4791 20.8201C16.1206 21.0271 15.6789 21.0271 15.3204 20.8201L10.8762 18.2543C10.5177 18.0473 10.2969 17.6648 10.2969 17.2508V12.1191C10.2969 11.7051 10.5177 11.3226 10.8762 11.1156L15.3204 8.54977Z" fill="#3F3F3F"/>
<rect x="10.2969" y="13.4336" width="3.08999" height="10.2356" fill="#3F3F3F"/>
<path d="M40.3653 24.1265C39.9529 24.1265 39.6187 24.0056 39.3627 23.7639C39.1209 23.5079 39 23.1665 39 22.7399V10.2599C39 9.84741 39.1138 9.52741 39.3413 9.29985C39.5831 9.0723 39.9102 8.95852 40.3227 8.95852H45.5707C47.1778 8.95852 48.4293 9.36385 49.3253 10.1745C50.2213 10.971 50.6693 12.0945 50.6693 13.5452C50.6693 14.9959 50.2213 16.1265 49.3253 16.9372C48.4293 17.7479 47.1778 18.1532 45.5707 18.1532H41.752V22.7399C41.752 23.1665 41.624 23.5079 41.368 23.7639C41.1262 24.0056 40.792 24.1265 40.3653 24.1265ZM45.2293 16.0412C47.1209 16.0412 48.0667 15.2163 48.0667 13.5665C48.0667 11.9167 47.1209 11.0919 45.2293 11.0919H41.752V16.0412H45.2293Z" fill="white"/>
<path d="M54.1713 24.1265C53.7873 24.1265 53.4673 24.0199 53.2113 23.8065C52.9696 23.579 52.8487 23.259 52.8487 22.8465V14.6119C52.8487 14.1994 52.9696 13.8865 53.2113 13.6732C53.4673 13.4599 53.7873 13.3532 54.1713 13.3532C54.5553 13.3532 54.8753 13.4599 55.1313 13.6732C55.3873 13.8865 55.5153 14.1994 55.5153 14.6119V22.8465C55.5153 23.259 55.3873 23.579 55.1313 23.8065C54.8753 24.0199 54.5553 24.1265 54.1713 24.1265ZM54.1713 11.4545C53.6878 11.4545 53.3038 11.3265 53.0193 11.0705C52.7349 10.8003 52.5927 10.4519 52.5927 10.0252C52.5927 9.59852 52.7349 9.25719 53.0193 9.00119C53.3038 8.74519 53.6878 8.61719 54.1713 8.61719C54.6407 8.61719 55.0176 8.74519 55.302 9.00119C55.6007 9.25719 55.75 9.59852 55.75 10.0252C55.75 10.4519 55.6078 10.8003 55.3233 11.0705C55.0389 11.3265 54.6549 11.4545 54.1713 11.4545Z" fill="white"/>
<path d="M62.8947 24.1692C61.8564 24.1692 60.9391 23.9487 60.1427 23.5079C59.3604 23.067 58.756 22.4412 58.3293 21.6305C57.9027 20.8199 57.6893 19.8741 57.6893 18.7932C57.6893 17.7123 57.9098 16.7594 58.3507 15.9345C58.8058 15.0954 59.4387 14.4483 60.2493 13.9932C61.06 13.5381 61.9916 13.3105 63.044 13.3105C63.5987 13.3105 64.1533 13.3887 64.708 13.5452C65.2769 13.7016 65.7747 13.915 66.2013 14.1852C66.6564 14.4839 66.884 14.8607 66.884 15.3159C66.884 15.6287 66.8058 15.8847 66.6493 16.0839C66.5071 16.2687 66.3151 16.3612 66.0733 16.3612C65.9169 16.3612 65.7533 16.3256 65.5827 16.2545C65.412 16.1834 65.2413 16.0981 65.0707 15.9985C64.7578 15.8136 64.4591 15.6714 64.1747 15.5719C63.8902 15.4581 63.5631 15.4012 63.1933 15.4012C62.3116 15.4012 61.6289 15.6927 61.1453 16.2759C60.676 16.8447 60.4413 17.6696 60.4413 18.7505C60.4413 19.8172 60.676 20.6421 61.1453 21.2252C61.6289 21.7941 62.3116 22.0785 63.1933 22.0785C63.5489 22.0785 63.8618 22.0287 64.132 21.9292C64.4164 21.8154 64.7293 21.6661 65.0707 21.4812C65.284 21.3532 65.4689 21.2607 65.6253 21.2039C65.7818 21.1327 65.9382 21.0972 66.0947 21.0972C66.3222 21.0972 66.5142 21.1967 66.6707 21.3959C66.8271 21.595 66.9053 21.8439 66.9053 22.1425C66.9053 22.3843 66.8484 22.5976 66.7347 22.7825C66.6351 22.9532 66.4644 23.1096 66.2227 23.2519C65.7818 23.5363 65.2698 23.7639 64.6867 23.9345C64.1036 24.091 63.5062 24.1692 62.8947 24.1692Z" fill="white"/>
<path d="M73.4393 24.1692C72.3727 24.1692 71.434 23.9487 70.6233 23.5079C69.8269 23.067 69.2082 22.4341 68.7673 21.6092C68.3264 20.7843 68.106 19.8243 68.106 18.7292C68.106 17.6341 68.3264 16.6812 68.7673 15.8705C69.2082 15.0456 69.8269 14.4127 70.6233 13.9719C71.434 13.531 72.3727 13.3105 73.4393 13.3105C74.506 13.3105 75.4376 13.531 76.234 13.9719C77.0447 14.4127 77.6633 15.0456 78.09 15.8705C78.5309 16.6812 78.7513 17.6341 78.7513 18.7292C78.7513 19.8243 78.5309 20.7843 78.09 21.6092C77.6633 22.4341 77.0447 23.067 76.234 23.5079C75.4376 23.9487 74.506 24.1692 73.4393 24.1692ZM73.418 22.0999C74.2856 22.0999 74.9469 21.8154 75.402 21.2465C75.8571 20.6776 76.0847 19.8385 76.0847 18.7292C76.0847 17.6341 75.8571 16.8021 75.402 16.2332C74.9469 15.6501 74.2927 15.3585 73.4393 15.3585C72.586 15.3585 71.9247 15.6501 71.4553 16.2332C71.0002 16.8021 70.7727 17.6341 70.7727 18.7292C70.7727 19.8385 71.0002 20.6776 71.4553 21.2465C71.9104 21.8154 72.5647 22.0999 73.418 22.0999Z" fill="white"/>
<path d="M84.7288 24.1692C83.1786 24.1692 81.9271 23.8634 80.9742 23.2519C80.5191 22.9816 80.2915 22.5976 80.2915 22.0999C80.2915 21.8154 80.3697 21.5879 80.5262 21.4172C80.6826 21.2323 80.8746 21.1399 81.1022 21.1399C81.3439 21.1399 81.6782 21.2536 82.1048 21.4812C82.5599 21.6945 82.9724 21.8581 83.3422 21.9719C83.7262 22.0856 84.2097 22.1425 84.7928 22.1425C85.3902 22.1425 85.8524 22.043 86.1795 21.8439C86.5208 21.6447 86.6915 21.3674 86.6915 21.0119C86.6915 20.7701 86.6204 20.5781 86.4782 20.4359C86.3502 20.2936 86.1084 20.1656 85.7528 20.0519C85.4115 19.9239 84.8853 19.7816 84.1742 19.6252C82.9084 19.3692 81.9982 19.0065 81.4435 18.5372C80.9031 18.0679 80.6328 17.4207 80.6328 16.5959C80.6328 15.9701 80.8177 15.4083 81.1875 14.9105C81.5573 14.3985 82.0622 14.0074 82.7022 13.7372C83.3564 13.4527 84.0959 13.3105 84.9208 13.3105C85.5182 13.3105 86.0942 13.3887 86.6488 13.5452C87.2035 13.6874 87.7013 13.9007 88.1422 14.1852C88.5973 14.4696 88.8248 14.8465 88.8248 15.3159C88.8248 15.6003 88.7466 15.8421 88.5902 16.0412C88.4337 16.2261 88.2417 16.3185 88.0142 16.3185C87.8577 16.3185 87.7013 16.2901 87.5448 16.2332C87.4026 16.1621 87.2177 16.0625 86.9902 15.9345C86.5777 15.7212 86.2222 15.5647 85.9235 15.4652C85.6248 15.3514 85.2551 15.2945 84.8142 15.2945C84.2879 15.2945 83.8684 15.4012 83.5555 15.6145C83.2568 15.8279 83.1075 16.1194 83.1075 16.4892C83.1075 16.8447 83.2639 17.115 83.5768 17.2999C83.8897 17.4847 84.4942 17.6696 85.3902 17.8545C86.3431 18.0536 87.0897 18.2812 87.6302 18.5372C88.1706 18.7932 88.5546 19.1132 88.7822 19.4972C89.0239 19.8812 89.1448 20.3719 89.1448 20.9692C89.1448 21.9363 88.7395 22.7114 87.9288 23.2945C87.1324 23.8776 86.0657 24.1692 84.7288 24.1692Z" fill="white"/>
</svg>
