<svg width="20" height="22" viewBox="0 0 20 22" fill="none" xmlns="http://www.w3.org/2000/svg">
<path d="M12.9941 10.6328C12.9941 9.97656 12.502 9.44336 11.9277 9.44336C11.3125 9.44336 10.8203 9.97656 10.8203 10.6328C10.8203 11.248 11.3125 11.7812 11.9277 11.7812C12.502 11.7812 12.9941 11.248 12.9941 10.6328ZM8.07227 9.44336C7.49805 9.44336 7.00586 9.97656 7.00586 10.6328C7.00586 11.248 7.49805 11.7812 8.07227 11.7812C8.6875 11.7812 9.13867 11.248 9.13867 10.6328C9.17969 9.97656 8.6875 9.44336 8.07227 9.44336ZM19.1875 2.79883C19.1875 1.60938 18.2031 0.625 17.0137 0.625H2.94531C1.75586 0.625 0.8125 1.60938 0.8125 2.79883V16.9902C0.8125 18.2207 1.75586 19.1641 2.94531 19.1641H14.8398L14.3066 17.2363C17.3828 20.0664 16.5215 19.3281 19.1875 21.625V2.79883ZM16.1934 12.7656C16.1934 12.7656 15.291 14.2832 12.9531 14.3652C12.9531 14.3652 12.584 13.9141 12.2559 13.5039C13.6504 13.1348 14.1836 12.2734 14.1836 12.2734C13.7324 12.5605 13.3223 12.7246 12.9531 12.8887C10.6973 13.832 8.19531 13.5039 6.39062 12.5195C6.39062 12.4785 6.14453 12.3555 5.98047 12.2324C5.98047 12.2324 6.47266 13.0938 7.82617 13.5039C7.49805 13.873 7.12891 14.3652 7.12891 14.3652C4.79102 14.2832 3.92969 12.7656 3.92969 12.7656C3.92969 9.36133 5.40625 6.6543 5.40625 6.6543C6.92383 5.50586 8.35938 5.54688 8.35938 5.54688L8.48242 5.66992C6.5957 6.20312 5.73438 7.02344 5.73438 7.02344C5.73438 7.02344 5.93945 6.90039 6.34961 6.73633C8.76953 5.66992 11.6816 5.66992 14.1836 7.02344C14.1836 7.02344 13.3633 6.24414 11.5586 5.71094L11.7227 5.54688C11.7227 5.54688 13.1582 5.50586 14.6758 6.6543C14.6758 6.6543 16.1934 9.36133 16.1934 12.7656Z" fill="white"/>
</svg>
