<svg width="86" height="86" viewBox="0 0 86 86" fill="none" xmlns="http://www.w3.org/2000/svg">
<path fill-rule="evenodd" clip-rule="evenodd" d="M43 85.9999C66.7482 85.9999 86 66.7481 86 42.9999C86 19.2517 66.7482 0 43 0C19.2518 0 0 19.2517 0 42.9999C0 43.5538 0.0104708 44.1052 0.0312252 44.6539C0.0106087 44.9449 0.000124977 45.2387 0.000124977 45.5349V69.619C0.000124977 78.666 7.33412 86 16.3811 86H41.1327C41.3721 86 41.6103 85.9949 41.8472 85.9847C42.2302 85.9948 42.6145 85.9999 43 85.9999Z" fill="#3F3F3F"/>
<path d="M41.1726 22.9797C42.1361 22.4234 43.3232 22.4234 44.2867 22.9797L56.2304 29.8754C57.1939 30.4317 57.7875 31.4597 57.7875 32.5723V46.3637C57.7875 47.4762 57.1939 48.5043 56.2304 49.0606L44.2867 55.9563C43.3232 56.5126 42.1361 56.5126 41.1726 55.9563L29.2289 49.0606C28.2654 48.5043 27.6719 47.4762 27.6719 46.3637V32.5723C27.6719 31.4597 28.2654 30.4317 29.2289 29.8754L41.1726 22.9797Z" fill="white"/>
<rect x="27.6719" y="36.1055" width="8.30435" height="27.5082" fill="white"/>
</svg>
